<?xml version="1.0" encoding="UTF-8"?>
<svg xmlns="http://www.w3.org/2000/svg" xmlns:xlink="http://www.w3.org/1999/xlink" viewBox="0 0 48 48" width="48px" height="48px">
<g id="surface34399873">
<path style=" stroke:none;fill-rule:nonzero;fill:rgb(100%,100%,100%);fill-opacity:1;" d="M 24 48 C 10.746094 48 0 37.253906 0 24 C 0 10.746094 10.746094 0 24 0 C 37.253906 0 48 10.746094 48 24 C 48 37.253906 37.253906 48 24 48 Z M 24 48 "/>
<path style=" stroke:none;fill-rule:nonzero;fill:rgb(0%,0%,0%);fill-opacity:1;" d="M 24 8.160156 C 32.738281 8.160156 39.824219 15.246094 39.824219 23.984375 C 39.824219 31.007812 35.242188 36.960938 28.90625 39.027344 C 28.90625 39.019531 28.910156 39.011719 28.910156 39.011719 C 28.910156 39.011719 27.84375 38.511719 27.863281 37.617188 C 27.890625 36.636719 27.863281 34.339844 27.863281 33.5 C 27.863281 32.054688 26.949219 31.027344 26.949219 31.027344 C 26.949219 31.027344 34.125 31.109375 34.125 23.453125 C 34.125 20.5 32.582031 18.960938 32.582031 18.960938 C 32.582031 18.960938 33.394531 15.808594 32.300781 14.46875 C 31.078125 14.335938 28.886719 15.640625 27.949219 16.246094 C 27.949219 16.246094 26.46875 15.640625 24 15.640625 C 21.53125 15.640625 20.050781 16.246094 20.050781 16.246094 C 19.113281 15.640625 16.921875 14.335938 15.699219 14.46875 C 14.605469 15.808594 15.417969 18.960938 15.417969 18.960938 C 15.417969 18.960938 13.875 20.5 13.875 23.453125 C 13.875 31.109375 21.050781 31.027344 21.050781 31.027344 C 21.050781 31.027344 20.328125 31.847656 20.167969 33.046875 C 19.667969 33.21875 18.929688 33.425781 18.335938 33.425781 C 16.777344 33.425781 15.59375 31.914062 15.160156 31.214844 C 14.730469 30.523438 13.855469 29.941406 13.035156 29.941406 C 12.496094 29.941406 12.234375 30.210938 12.234375 30.519531 C 12.234375 30.828125 12.988281 31.042969 13.488281 31.613281 C 14.539062 32.820312 14.519531 35.527344 18.261719 35.527344 C 18.667969 35.527344 19.5 35.425781 20.125 35.339844 C 20.121094 36.195312 20.121094 37.09375 20.132812 37.621094 C 20.15625 38.511719 19.089844 39.011719 19.089844 39.011719 C 19.089844 39.011719 19.089844 39.023438 19.09375 39.027344 C 12.757812 36.960938 8.175781 31.007812 8.175781 23.984375 C 8.175781 15.246094 15.261719 8.160156 24 8.160156 Z M 24 8.160156 "/>
</g>
</svg>
