<?xml version="1.0" encoding="utf-8"?>
<!-- Generator: Adobe Illustrator 24.3.0, SVG Export Plug-In . SVG Version: 6.00 Build 0)  -->
<svg version="1.1" id="Layer_1" xmlns="http://www.w3.org/2000/svg" xmlns:xlink="http://www.w3.org/1999/xlink" x="0px" y="0px"
	 viewBox="0 0 512 512" style="enable-background:new 0 0 512 512;" xml:space="preserve">
<style type="text/css">
	.st0{fill:#330000;}
	.st1{fill:#FF9A00;}
</style>
<g id="Illustrator" transform="translate(2303 308)">
	<path id="Прямоугольник_16" class="st0" d="M-2223.03-308h352.05c44.13,0,79.97,35.84,79.97,79.97v352.05
		c0,44.13-35.84,79.97-79.97,79.97h-352.05c-44.13,0-79.97-35.84-79.97-79.97v-352.05C-2303-272.16-2267.16-308-2223.03-308z"/>
	<path id="Контур_30" class="st1" d="M-2053.35,3.71h-78.13l-15.97,52.22c-0.41,1.84-2.15,3.17-4.1,3.07h-39.63
		c-2.25,0-3.07-1.23-2.36-3.69l67.48-194.87c0.72-2.05,1.33-4.3,2.05-6.96c0.92-3.79,1.43-7.68,1.33-11.57
		c-0.2-1.13,0.61-2.25,1.74-2.36c0.2,0,0.41,0,0.61,0h53.76c1.54,0,2.46,0.61,2.66,1.74l77,214.32c0.72,2.25,0,3.38-2.05,3.38
		h-43.93c-1.54,0.2-2.97-0.82-3.38-2.36L-2053.35,3.71z M-2119.81-32.34h57.24c-1.33-4.51-6.04-14.95-7.78-20.58
		s-4.3-10.14-6.35-16.59c-2.05-6.45-4.1-12.9-6.04-19.25c-2.05-6.45-3.89-12.6-5.63-18.64c-1.74-5.94-3.17-11.47-4.61-16.38h-0.31
		c-1.95,9.11-4.3,18.12-7.07,27.03c-3.17,10.14-6.35,20.48-9.63,31.13C-2113.25-54.97-2116.63-41.35-2119.81-32.34L-2119.81-32.34z"
		/>
	<path id="Контур_31" class="st1" d="M-1941.02-125.22c-6.96,0.31-13.72-2.46-18.64-7.48c-4.81-5.22-7.37-12.19-7.07-19.25
		c-0.2-7.07,2.56-13.93,7.58-18.74c5.02-4.81,11.78-7.48,18.74-7.27c7.07-0.41,14.03,2.25,19.15,7.27
		c4.71,5.12,7.17,11.88,6.96,18.74c0.31,7.17-2.36,14.13-7.27,19.25C-1926.78-127.57-1933.85-124.91-1941.02-125.22z
		 M-1962.93,55.52V-99.1c0-2.05,0.92-3.07,2.66-3.07h38.4c1.84,0,2.66,1.02,2.66,3.07V55.52c0,2.25-0.92,3.38-2.66,3.38h-38.09
		C-1961.91,58.9-1962.93,57.77-1962.93,55.52z"/>
</g>
</svg>
