<?xml version="1.0" encoding="utf-8"?>
<!-- Generator: Adobe Illustrator 24.3.0, SVG Export Plug-In . SVG Version: 6.00 Build 0)  -->
<svg version="1.1" id="Layer_1" xmlns="http://www.w3.org/2000/svg" xmlns:xlink="http://www.w3.org/1999/xlink" x="0px" y="0px"
	 viewBox="0 0 512 512" style="enable-background:new 0 0 512 512;" xml:space="preserve">
<style type="text/css">
	.st0{fill:#001E36;}
	.st1{fill:#31A8FF;}
</style>
<g id="Layer_2_1_">
	<g id="Surfaces">
		<g id="Photo_Surface">
			<g id="Outline_no_shadow">
				<path class="st0" d="M90.59,6.4h330.72c50.19,0,90.64,40.56,90.64,90.64v317.91c0,50.19-40.56,90.64-90.64,90.64H90.59
					c-50.19,0-90.64-40.56-90.64-90.64V97.04C-0.05,46.86,40.51,6.4,90.59,6.4z"/>
			</g>
		</g>
	</g>
	<g id="Outlined_Mnemonics_Logos">
		<g id="Ps">
			<path class="st1" d="M115.17,356.47V136.99c0-1.54,0.61-2.36,2.15-2.36c3.58,0,7.07,0,11.98-0.2c5.12-0.2,10.45-0.2,16.18-0.41
				s11.98-0.2,18.54-0.41c6.66-0.2,13.01-0.2,19.46-0.2c17.51,0,32.06,2.15,43.94,6.66c10.65,3.58,20.48,9.63,28.58,17.51
				c6.86,6.86,12.19,15.16,15.57,24.38c3.18,8.91,4.92,18.13,4.92,27.76c0,18.33-4.3,33.49-12.8,45.47
				c-8.5,11.98-20.48,20.89-34.31,26.01c-14.54,5.33-30.52,7.27-48.04,7.27c-5.12,0-8.5,0-10.65-0.2s-5.12-0.2-9.22-0.2v68.52
				c0.2,1.54-0.82,2.77-2.36,2.97c-0.2,0-0.41,0-0.82,0h-40.56C115.99,359.24,115.17,358.42,115.17,356.47z M161.67,175.8v71.69
				c2.97,0.2,5.74,0.41,8.3,0.41h11.27c8.3,0,16.69-1.33,24.58-3.89c6.86-1.95,12.8-5.94,17.51-11.27
				c4.51-5.33,6.66-12.6,6.66-22.02c0.2-6.66-1.54-13.21-4.92-18.95c-3.58-5.53-8.71-9.83-14.95-12.19
				c-7.89-3.18-16.39-4.51-25.2-4.3c-5.53,0-10.45,0-14.54,0.2C166.18,175.4,163.21,175.6,161.67,175.8L161.67,175.8z"/>
			<path class="st1" d="M409.63,234.49c-6.45-3.38-13.21-5.74-20.48-7.27c-7.89-1.74-15.77-2.77-23.86-2.77
				c-4.3-0.2-8.71,0.41-12.8,1.54c-2.77,0.61-5.12,2.15-6.66,4.3c-1.02,1.74-1.74,3.89-1.74,5.74c0,1.95,0.82,3.89,2.15,5.53
				c1.95,2.36,4.51,4.3,7.27,5.74c4.92,2.56,10.04,4.92,15.16,7.07c11.57,3.89,22.63,9.22,32.88,15.57
				c7.07,4.51,12.8,10.45,16.9,17.72c3.38,6.86,5.12,14.34,4.92,22.02c0.2,10.04-2.77,20.07-8.3,28.37
				c-5.94,8.5-14.34,15.16-23.86,18.95c-10.45,4.51-23.25,6.86-38.61,6.86c-9.83,0-19.46-0.82-28.98-2.77
				c-7.48-1.33-14.95-3.58-21.82-6.86c-1.54-0.82-2.56-2.36-2.36-4.1v-37.08c0-0.61,0.2-1.54,0.82-1.95s1.33-0.2,1.95,0.2
				c8.3,4.92,17.1,8.3,26.42,10.45c8.09,2.15,16.69,3.18,25.2,3.18c8.09,0,13.83-1.02,17.72-2.97c3.38-1.54,5.74-5.12,5.74-9.01
				c0-2.97-1.74-5.74-5.12-8.5c-3.38-2.77-10.45-5.94-20.89-10.04c-10.86-3.89-20.89-9.01-30.32-15.36
				c-6.66-4.71-12.19-10.86-16.18-18.13c-3.38-6.86-5.12-14.34-4.92-21.71c0-9.22,2.56-17.92,7.27-25.81
				c5.33-8.5,13.21-15.36,22.43-19.66c10.04-5.12,22.63-7.48,37.79-7.48c8.71,0,17.72,0.61,26.42,1.95
				c6.45,0.82,12.6,2.56,18.33,4.92c0.82,0.2,1.74,1.02,2.15,1.95c0.2,0.82,0.41,1.74,0.41,2.56v34.82c0,0.82-0.41,1.74-1.02,2.15
				C411.58,234.9,410.45,234.9,409.63,234.49z"/>
		</g>
	</g>
</g>
</svg>
